{"title":"Maze Runner The Scorch Trials 2015 DVDRIP X264 AC3 TiTAN","uid":12787695,"size":1933990935,"categoryP":"video","categoryS":"movies","magnet":"?xt=urn:btih:b2b400dc837dfa4b8919d0ce6ff58608b664eac5&amp;dn=Maze+Runner+The+Scorch+Trials+2015+DVDRIP+X264+AC3+TiTAN&amp;tr=udp%3A%2F%2Ftracker.leechers-paradise.org%3A6969&amp;tr=udp%3A%2F%2Fzer0day.ch%3A1337&amp;tr=udp%3A%2F%2Fopen.demonii.com%3A1337&amp;tr=udp%3A%2F%2Ftracker.coppersurfer.tk%3A6969&amp;tr=udp%3A%2F%2Fexodus.desync.com%3A6969","seeders":0,"leechers":0,"uploader":"TvTeam","files":3,"time":1447881273,"description":"------------------------------------------------------------------------\r\n\r  https://www.torrenting.com\r\n\r\nSign up is OPEN - for time being. Come and have fun.\r\n\r\n------------------------------------------------------------------------[img]http://i.imgur.com/PGOXcVV.jpg[/img]\r\n \nhttp://www.imdb.com/title/tt4046784/\r\n\r\nSource: R2 DVDR\r\n\r\nFormat                                   : Matroska\r\nFormat version                           : Version 2\r\nFile size                                : 1.80 GiB\r\nDuration                                 : 2h 11mn\r\nOverall bit rate mode                    : Variable\r\nOverall bit rate                         : 1 958 Kbps\r\n\r\nVideo\r\nID                                       : 1\r\nFormat                                   : AVC\r\nFormat/Info                              : Advanced Video Codec\r\nFormat profile                           :   \r\nFormat settings, CABAC                   : Yes\r\nFormat settings, ReFrames                : 3 frames\r\nCodec ID                                 : V_MPEG4/ISO/AVC\r\nDuration                                 : 2h 11mn\r\nBit rate mode                            : Variable\r\nBit rate                                 : 1 700 Kbps\r\nMaximum bit rate                         : 40.0 Mbps\r\nWidth                                    : 720 pixels\r\nHeight                                   : 304 pixels\r\nDisplay aspect ratio                     : 2.35:1\r\nFrame rate mode                          : Constant\r\nFrame rate                               : 23.976 fps\r\nColor space                              : YUV\r\nChroma subsampling                       : 4:2:0\r\nBit depth                                : 8 bits\r\nScan type                                : Progressive\r\nBits/(Pixel*Frame)                       : 0.324\r\nStream size                              : 1.53 GiB (85%)\r\nDefault                                  : Yes\r\nForced                                   : No\r\nColor primaries                          : BT.709\r\nTransfer characteristics                 : BT.709\r\nMatrix coefficients                      : BT.709\r\n\r\nAudio\r\nID                                       : 2\r\nFormat                                   : AC-3\r\nFormat/Info                              : Audio Coding 3\r\nMode extension                           : CM (complete main)\r\nFormat settings, Endianness              : Big\r\nCodec ID                                 : A_AC3\r\nDuration                                 : 2h 11mn\r\nBit rate mode                            : Constant\r\nBit rate                                 : 256 Kbps\r\nChannel(s)                               : 2 channels\r\nChannel positions                        : Front: L R\r\nSampling rate                            : 48.0 KHz\r\nBit depth                                : 16 bits\r\nCompression mode                         : Lossy\r\nDelay relative to video                  : 16ms\r\nStream size                              : 241 MiB (13%)\r\nDefault                                  : Yes\r\nForced                                   : No\r\n\r\n\r\n[img]http://i.imgur.com/ULRAbCE.png[/img]\r\n[img]http://i.imgur.com/Pvokpdx.png[/img]\r\n[img]http://i.imgur.com/yyPxj12.png[/img]\r\n[img]http://i.imgur.com/nC0Uu9L.png[/img]\r\n[img]http://i.imgur.com/jxeF4kq.png[/img]","torrent":{"xt":"urn:btih:b2b400dc837dfa4b8919d0ce6ff58608b664eac5","amp;dn":"Maze+Runner+The+Scorch+Trials+2015+DVDRIP+X264+AC3+TiTAN","amp;tr":["udp%3A%2F%2Ftracker.leechers-paradise.org%3A6969","udp%3A%2F%2Fzer0day.ch%3A1337","udp%3A%2F%2Fopen.demonii.com%3A1337","udp%3A%2F%2Ftracker.coppersurfer.tk%3A6969","udp%3A%2F%2Fexodus.desync.com%3A6969"],"infoHash":"b2b400dc837dfa4b8919d0ce6ff58608b664eac5","infoHashBuffer":{"type":"Buffer","data":[178,180,0,220,131,125,250,75,137,25,208,206,111,245,134,8,182,100,234,197]},"announce":[],"urlList":[]}}